<svg width="158" height="33" viewBox="0 0 158 33" fill="none" xmlns="http://www.w3.org/2000/svg">
<path d="M22.0266 3.344C21.7066 4.176 21.376 5.18933 21.0346 6.384C20.6933 7.55733 20.3413 8.99733 19.9786 10.704H19.2746C19.4453 9.59467 19.5093 8.656 19.4666 7.888C19.4453 7.12 19.2853 6.45867 18.9866 5.904C18.5813 5.11467 18.016 4.528 17.2906 4.144C16.5653 3.73867 15.776 3.536 14.9226 3.536C13.8346 3.536 12.7786 3.856 11.7546 4.496C10.7306 5.11467 9.78129 5.968 8.90663 7.056C8.03196 8.12267 7.25329 9.33867 6.57063 10.704C5.90929 12.0693 5.38663 13.5093 5.00263 15.024C4.63996 16.5173 4.45863 17.9893 4.45863 19.44C4.45863 21.5733 4.86396 23.1627 5.67463 24.208C6.48529 25.232 7.58396 25.744 8.97063 25.744C9.82396 25.744 10.7413 25.5413 11.7226 25.136C12.7253 24.7307 13.6 24.144 14.3466 23.376C14.9226 22.8 15.4133 22.128 15.8186 21.36C16.2453 20.5707 16.7146 19.5573 17.2266 18.32H17.9306C17.3973 20.2613 16.9813 21.8293 16.6826 23.024C16.4053 24.1973 16.192 25.1893 16.0426 26H15.3386C15.4026 25.552 15.4346 25.1893 15.4346 24.912C15.4346 24.4427 15.3493 24.176 15.1786 24.112C15.008 24.048 14.7413 24.1333 14.3786 24.368C13.8026 24.752 13.216 25.104 12.6186 25.424C12.0426 25.7227 11.4026 25.968 10.6986 26.16C9.99463 26.352 9.18396 26.448 8.26663 26.448C5.72796 26.448 3.78663 25.7973 2.44263 24.496C1.09863 23.1947 0.426625 21.296 0.426625 18.8C0.426625 17.328 0.650625 15.8453 1.09863 14.352C1.56796 12.8373 2.22929 11.3973 3.08263 10.032C3.95729 8.66667 4.98129 7.45067 6.15463 6.384C7.34929 5.31733 8.67196 4.47467 10.1226 3.856C11.5946 3.216 13.1626 2.896 14.8266 2.896C15.744 2.896 16.4906 3.00267 17.0666 3.216C17.6426 3.408 18.1226 3.664 18.5066 3.984C18.912 4.28267 19.2746 4.61333 19.5946 4.976C19.8933 5.27467 20.1706 5.30667 20.4266 5.072C20.704 4.83733 21.0133 4.26133 21.3546 3.344H22.0266ZM30.5316 9.712C29.913 9.712 29.305 9.98933 28.7076 10.544C28.1103 11.0987 27.545 11.856 27.0116 12.816C26.4996 13.7547 26.041 14.8107 25.6356 15.984C25.2303 17.1573 24.9103 18.3733 24.6756 19.632C24.4623 20.8907 24.3556 22.0853 24.3556 23.216C24.3556 24.112 24.4836 24.7733 24.7396 25.2C25.017 25.6053 25.4116 25.808 25.9236 25.808C26.5423 25.808 27.1503 25.5307 27.7476 24.976C28.345 24.4213 28.9103 23.6747 29.4436 22.736C29.977 21.7973 30.4356 20.752 30.8196 19.6C31.225 18.4267 31.5343 17.2107 31.7476 15.952C31.9823 14.6933 32.0996 13.4773 32.0996 12.304C32.0996 11.3653 31.9716 10.704 31.7156 10.32C31.4596 9.91467 31.065 9.712 30.5316 9.712ZM21.0916 21.328C21.0916 20.3893 21.2196 19.3653 21.4756 18.256C21.7316 17.1467 22.1263 16.048 22.6596 14.96C23.193 13.872 23.833 12.8907 24.5796 12.016C25.3476 11.12 26.2436 10.4053 27.2676 9.872C28.313 9.33867 29.465 9.072 30.7236 9.072C32.153 9.072 33.2836 9.49867 34.1156 10.352C34.9476 11.184 35.3636 12.464 35.3636 14.192C35.3636 15.1307 35.2356 16.1547 34.9796 17.264C34.7236 18.3733 34.329 19.472 33.7956 20.56C33.2623 21.648 32.6116 22.64 31.8436 23.536C31.097 24.4107 30.201 25.1147 29.1556 25.648C28.1316 26.1813 26.9903 26.448 25.7316 26.448C24.3023 26.448 23.1716 26.0213 22.3396 25.168C21.5076 24.3147 21.0916 23.0347 21.0916 21.328ZM40.8661 26H37.5061L41.3461 12.24C41.4315 11.9627 41.4955 11.6853 41.5381 11.408C41.6021 11.1093 41.5915 10.864 41.5061 10.672C41.4208 10.48 41.2181 10.384 40.8981 10.384C40.4715 10.384 40.0768 10.5973 39.7141 11.024C39.3728 11.4507 38.9995 12.24 38.5941 13.392L38.1141 14.736H37.5061L38.3061 12.368C38.7755 11.0667 39.3515 10.192 40.0341 9.744C40.7381 9.296 41.4741 9.072 42.2421 9.072C42.9248 9.072 43.4261 9.21067 43.7461 9.488C44.0661 9.76533 44.2581 10.128 44.3221 10.576C44.4075 11.0027 44.4075 11.4827 44.3221 12.016C44.2581 12.528 44.1621 13.04 44.0341 13.552L40.8661 26ZM42.1781 19.76C42.9461 17.712 43.6821 16.0053 44.3861 14.64C45.1115 13.2533 45.8155 12.1547 46.4981 11.344C47.1808 10.5333 47.8741 9.95733 48.5781 9.616C49.3035 9.25333 50.0608 9.072 50.8501 9.072C51.8741 9.072 52.5781 9.30667 52.9621 9.776C53.3675 10.2453 53.5488 10.8533 53.5061 11.6C53.4848 12.3253 53.3461 13.0933 53.0901 13.904L49.9861 23.28C49.7728 23.856 49.6981 24.3147 49.7621 24.656C49.8261 24.976 50.0608 25.136 50.4661 25.136C50.8288 25.136 51.1915 24.9333 51.5541 24.528C51.9381 24.1227 52.3435 23.3227 52.7701 22.128L53.2501 20.816H53.8581L53.0581 23.152C52.7595 24.048 52.3755 24.7307 51.9061 25.2C51.4581 25.6693 50.9781 25.9893 50.4661 26.16C49.9755 26.352 49.4955 26.448 49.0261 26.448C48.4928 26.448 48.0448 26.3627 47.6821 26.192C47.3195 26.0213 47.0421 25.7867 46.8501 25.488C46.5941 25.0827 46.4981 24.5707 46.5621 23.952C46.6261 23.312 46.7968 22.5867 47.0741 21.776L50.0501 12.784C50.1568 12.464 50.2421 12.112 50.3061 11.728C50.3701 11.344 50.3595 11.0133 50.2741 10.736C50.1888 10.4373 49.9221 10.288 49.4741 10.288C49.0048 10.288 48.4928 10.5227 47.9381 10.992C47.3835 11.4613 46.7968 12.1333 46.1781 13.008C45.5808 13.8613 44.9941 14.8747 44.4181 16.048C43.8421 17.2213 43.2875 18.5013 42.7541 19.888C42.2208 21.2533 41.7301 22.704 41.2821 24.24L42.1781 19.76ZM57.4066 10.16L57.5986 9.52H67.4226L67.2306 10.16H57.4066ZM68.1586 1.488C67.7746 1.488 67.4333 1.56267 67.1346 1.712C66.8573 1.86133 66.6013 2.04267 66.3666 2.256C66.0253 2.576 65.716 3.06667 65.4386 3.728C65.1826 4.368 64.9373 5.11467 64.7026 5.968C64.468 6.8 64.2333 7.70667 63.9986 8.688L57.8546 31.568C57.2146 31.5893 56.6066 31.632 56.0306 31.696C55.4546 31.76 54.9 31.8667 54.3666 32.016L60.3826 9.584C60.8306 7.856 61.3213 6.42667 61.8546 5.296C62.4093 4.144 63.06 3.22667 63.8066 2.544C64.34 2.05333 64.9693 1.66933 65.6946 1.392C66.4413 1.11466 67.2093 0.975998 67.9986 0.975998C69.0866 0.975998 69.9293 1.22133 70.5266 1.712C71.124 2.18133 71.4226 2.77867 71.4226 3.504C71.4226 3.888 71.316 4.272 71.1026 4.656C70.8893 5.01867 70.6013 5.31733 70.2386 5.552C69.8973 5.78667 69.492 5.904 69.0226 5.904C68.532 5.904 68.148 5.79733 67.8706 5.584C67.5933 5.34933 67.4653 5.02933 67.4866 4.624C67.4866 4.02667 67.668 3.51467 68.0306 3.088C68.4146 2.64 68.9053 2.32 69.5026 2.128C69.4813 1.97867 69.3426 1.84 69.0866 1.712C68.852 1.56267 68.5426 1.488 68.1586 1.488ZM69.0906 18.832C70.1786 18.448 71.1706 18.0533 72.0666 17.648C72.984 17.2427 73.7306 16.8053 74.3066 16.336C75.096 15.6747 75.7146 14.896 76.1626 14C76.632 13.0827 76.8666 12.08 76.8666 10.992C76.8666 10.4373 76.824 10.0853 76.7386 9.936C76.6533 9.76533 76.5253 9.68 76.3546 9.68C75.8426 9.68 75.288 9.91467 74.6906 10.384C74.1146 10.8533 73.5386 11.504 72.9626 12.336C72.3866 13.1467 71.8533 14.0747 71.3626 15.12C70.8933 16.144 70.5093 17.2427 70.2106 18.416C69.9333 19.568 69.7946 20.7093 69.7946 21.84C69.7946 22.9493 69.9973 23.7387 70.4026 24.208C70.8293 24.6773 71.384 24.912 72.0666 24.912C72.7706 24.912 73.5493 24.6987 74.4026 24.272C75.256 23.824 76.0986 23.0347 76.9306 21.904L77.4426 22.16C77.016 22.864 76.4613 23.5467 75.7786 24.208C75.096 24.8693 74.3173 25.4133 73.4426 25.84C72.5893 26.2453 71.6613 26.448 70.6586 26.448C69.784 26.448 69.0053 26.2773 68.3226 25.936C67.64 25.5947 67.1066 25.0933 66.7226 24.432C66.36 23.7493 66.1786 22.9173 66.1786 21.936C66.1786 20.9547 66.3493 19.888 66.6906 18.736C67.0533 17.5627 67.5546 16.4107 68.1946 15.28C68.856 14.1493 69.6346 13.1147 70.5306 12.176C71.4266 11.216 72.4293 10.4587 73.5386 9.904C74.648 9.34933 75.8213 9.072 77.0586 9.072C77.8266 9.072 78.4666 9.264 78.9786 9.648C79.4906 10.0107 79.7466 10.5653 79.7466 11.312C79.7466 12.1653 79.5013 12.9653 79.0106 13.712C78.5413 14.4373 77.9013 15.0987 77.0906 15.696C76.28 16.2933 75.3946 16.8267 74.4346 17.296C73.496 17.7653 72.5466 18.1707 71.5866 18.512C70.648 18.8533 69.8053 19.1307 69.0586 19.344L69.0906 18.832ZM85.9669 3.856C86.0522 3.17333 86.3509 2.61867 86.8629 2.192C87.3749 1.76533 87.9615 1.552 88.6229 1.552C89.2415 1.552 89.7215 1.75466 90.0629 2.16C90.4255 2.544 90.5642 3.024 90.4789 3.6C90.3935 4.26133 90.0842 4.816 89.5509 5.264C89.0389 5.69067 88.4522 5.904 87.7909 5.904C87.1722 5.904 86.6922 5.712 86.3509 5.328C86.0095 4.92267 85.8815 4.432 85.9669 3.856ZM84.9109 12.24C85.3162 11.0027 85.1775 10.384 84.4949 10.384C84.0255 10.384 83.6095 10.6293 83.2469 11.12C82.8842 11.5893 82.5109 12.3467 82.1269 13.392L81.6149 14.736H81.0069L81.8389 12.368C82.1589 11.4933 82.5429 10.8213 82.9909 10.352C83.4389 9.88267 83.9189 9.552 84.4309 9.36C84.9642 9.168 85.4762 9.072 85.9669 9.072C86.6709 9.072 87.2042 9.21067 87.5669 9.488C87.9295 9.76533 88.1535 10.128 88.2389 10.576C88.3242 11.024 88.3242 11.5147 88.2389 12.048C88.1535 12.56 88.0255 13.0613 87.8549 13.552L84.4629 23.28C84.2495 23.8773 84.1855 24.336 84.2709 24.656C84.3562 24.976 84.5802 25.136 84.9429 25.136C85.3269 25.136 85.7002 24.9333 86.0629 24.528C86.4255 24.1013 86.8309 23.3013 87.2789 22.128L87.7909 20.816H88.3989L87.5669 23.152C87.2682 24.0053 86.8949 24.6667 86.4469 25.136C85.9989 25.6053 85.5189 25.936 85.0069 26.128C84.5162 26.3413 84.0149 26.448 83.5029 26.448C82.5855 26.448 81.9349 26.2453 81.5509 25.84C81.1882 25.4133 81.0282 24.848 81.0709 24.144C81.1135 23.4187 81.2842 22.6293 81.5829 21.776L84.9109 12.24ZM102.21 9.52L102.114 10.16H91.7779L91.9379 9.52H102.21ZM94.2419 23.28C94.0712 23.9413 94.1139 24.4213 94.3699 24.72C94.6259 24.9973 94.9672 25.136 95.3939 25.136C95.8632 25.136 96.3325 24.9333 96.8019 24.528C97.2712 24.1013 97.7192 23.2907 98.1459 22.096L98.5939 20.816H99.2019L98.5299 22.768C98.0819 24.1333 97.4739 25.0933 96.7059 25.648C95.9379 26.1813 95.0419 26.448 94.0179 26.448C93.1005 26.448 92.3965 26.256 91.9059 25.872C91.4365 25.4667 91.1592 24.912 91.0739 24.208C90.9885 23.4827 91.0739 22.672 91.3299 21.776L96.2259 4.688C96.8659 4.66667 97.4739 4.624 98.0499 4.56C98.6472 4.496 99.1912 4.38933 99.6819 4.24L94.2419 23.28ZM105.531 25.2C106.001 25.2 106.523 24.9227 107.099 24.368C107.675 23.8133 108.262 23.056 108.859 22.096C109.457 21.1147 110.011 19.984 110.523 18.704C111.035 17.424 111.462 16.0587 111.803 14.608L111.227 18.096C110.502 20.1227 109.755 21.7547 108.987 22.992C108.241 24.208 107.473 25.0933 106.683 25.648C105.894 26.1813 105.083 26.448 104.251 26.448C103.185 26.448 102.385 26.096 101.851 25.392C101.318 24.6667 101.051 23.7173 101.051 22.544C101.051 21.4773 101.222 20.336 101.563 19.12C101.926 17.904 102.417 16.6987 103.035 15.504C103.675 14.3093 104.401 13.232 105.211 12.272C106.022 11.312 106.897 10.544 107.835 9.968C108.774 9.37067 109.713 9.072 110.651 9.072C111.377 9.072 111.931 9.41333 112.315 10.096C112.721 10.7573 112.817 11.728 112.603 13.008L112.251 13.2C112.401 12.1973 112.337 11.3973 112.059 10.8C111.803 10.1813 111.377 9.872 110.779 9.872C110.267 9.872 109.723 10.1387 109.147 10.672C108.571 11.184 108.006 11.8987 107.451 12.816C106.918 13.712 106.417 14.7253 105.947 15.856C105.499 16.9867 105.147 18.16 104.891 19.376C104.635 20.5707 104.507 21.744 104.507 22.896C104.507 23.7493 104.593 24.3467 104.763 24.688C104.955 25.0293 105.211 25.2 105.531 25.2ZM113.179 9.52C113.819 9.49867 114.438 9.456 115.035 9.392C115.633 9.328 116.187 9.22133 116.699 9.072L112.635 23.248C112.571 23.4827 112.507 23.7493 112.443 24.048C112.401 24.3253 112.411 24.5707 112.475 24.784C112.561 24.9973 112.763 25.104 113.083 25.104C113.467 25.104 113.851 24.9013 114.235 24.496C114.619 24.0693 115.003 23.2693 115.387 22.096L115.835 20.784H116.443L115.643 23.12C115.345 23.9947 114.982 24.6667 114.555 25.136C114.129 25.6053 113.67 25.936 113.179 26.128C112.71 26.3413 112.251 26.448 111.803 26.448C110.865 26.448 110.203 26.1493 109.819 25.552C109.542 25.0827 109.446 24.5173 109.531 23.856C109.638 23.1733 109.787 22.4693 109.979 21.744L113.179 9.52ZM122.24 26H118.88L122.72 12.24C122.912 11.5573 122.976 11.0773 122.912 10.8C122.848 10.5227 122.646 10.384 122.304 10.384C121.878 10.384 121.483 10.608 121.12 11.056C120.758 11.504 120.374 12.2827 119.968 13.392L119.488 14.736H118.88L119.68 12.368C120 11.4933 120.384 10.8213 120.832 10.352C121.28 9.88267 121.75 9.552 122.24 9.36C122.752 9.168 123.254 9.072 123.744 9.072C124.406 9.072 124.886 9.21067 125.184 9.488C125.483 9.76533 125.664 10.128 125.728 10.576C125.792 11.024 125.782 11.5147 125.696 12.048C125.632 12.56 125.536 13.0613 125.408 13.552L122.24 26ZM130.432 9.84C129.963 9.84 129.472 10.0427 128.96 10.448C128.448 10.832 127.926 11.4187 127.392 12.208C126.859 12.9973 126.315 13.9893 125.76 15.184C125.227 16.3787 124.683 17.776 124.128 19.376C123.595 20.9547 123.062 22.7467 122.528 24.752L123.296 20.592C123.979 18.416 124.619 16.592 125.216 15.12C125.814 13.648 126.4 12.4747 126.976 11.6C127.574 10.704 128.182 10.064 128.8 9.68C129.44 9.27467 130.123 9.072 130.848 9.072C131.531 9.072 132.054 9.27467 132.416 9.68C132.8 10.064 132.992 10.5547 132.992 11.152C132.992 11.6427 132.875 12.0907 132.64 12.496C132.406 12.88 132.096 13.2 131.712 13.456C131.35 13.6907 130.934 13.808 130.464 13.808C130.016 13.808 129.654 13.6907 129.376 13.456C129.099 13.2 128.96 12.848 128.96 12.4C128.96 11.9947 129.046 11.632 129.216 11.312C129.387 10.992 129.611 10.7147 129.888 10.48C130.166 10.2453 130.475 10.0747 130.816 9.968C130.774 9.92533 130.72 9.89333 130.656 9.872C130.592 9.85067 130.518 9.84 130.432 9.84ZM138.029 3.856C138.115 3.17333 138.413 2.61867 138.925 2.192C139.437 1.76533 140.024 1.552 140.685 1.552C141.304 1.552 141.784 1.75466 142.125 2.16C142.488 2.544 142.627 3.024 142.541 3.6C142.456 4.26133 142.147 4.816 141.613 5.264C141.101 5.69067 140.515 5.904 139.853 5.904C139.235 5.904 138.755 5.712 138.413 5.328C138.072 4.92267 137.944 4.432 138.029 3.856ZM136.973 12.24C137.379 11.0027 137.24 10.384 136.557 10.384C136.088 10.384 135.672 10.6293 135.309 11.12C134.947 11.5893 134.573 12.3467 134.189 13.392L133.677 14.736H133.069L133.901 12.368C134.221 11.4933 134.605 10.8213 135.053 10.352C135.501 9.88267 135.981 9.552 136.493 9.36C137.027 9.168 137.539 9.072 138.029 9.072C138.733 9.072 139.267 9.21067 139.629 9.488C139.992 9.76533 140.216 10.128 140.301 10.576C140.387 11.024 140.387 11.5147 140.301 12.048C140.216 12.56 140.088 13.0613 139.917 13.552L136.525 23.28C136.312 23.8773 136.248 24.336 136.333 24.656C136.419 24.976 136.643 25.136 137.005 25.136C137.389 25.136 137.763 24.9333 138.125 24.528C138.488 24.1013 138.893 23.3013 139.341 22.128L139.853 20.816H140.461L139.629 23.152C139.331 24.0053 138.957 24.6667 138.509 25.136C138.061 25.6053 137.581 25.936 137.069 26.128C136.579 26.3413 136.077 26.448 135.565 26.448C134.648 26.448 133.997 26.2453 133.613 25.84C133.251 25.4133 133.091 24.848 133.133 24.144C133.176 23.4187 133.347 22.6293 133.645 21.776L136.973 12.24ZM146.656 25.2C147.126 25.2 147.648 24.9227 148.224 24.368C148.8 23.8133 149.387 23.056 149.984 22.096C150.582 21.1147 151.136 19.984 151.648 18.704C152.16 17.424 152.587 16.0587 152.928 14.608L152.352 18.096C151.627 20.1227 150.88 21.7547 150.112 22.992C149.366 24.208 148.598 25.0933 147.808 25.648C147.019 26.1813 146.208 26.448 145.376 26.448C144.31 26.448 143.51 26.096 142.976 25.392C142.443 24.6667 142.176 23.7173 142.176 22.544C142.176 21.4773 142.347 20.336 142.688 19.12C143.051 17.904 143.542 16.6987 144.16 15.504C144.8 14.3093 145.526 13.232 146.336 12.272C147.147 11.312 148.022 10.544 148.96 9.968C149.899 9.37067 150.838 9.072 151.776 9.072C152.502 9.072 153.056 9.41333 153.44 10.096C153.846 10.7573 153.942 11.728 153.728 13.008L153.376 13.2C153.526 12.1973 153.462 11.3973 153.184 10.8C152.928 10.1813 152.502 9.872 151.904 9.872C151.392 9.872 150.848 10.1387 150.272 10.672C149.696 11.184 149.131 11.8987 148.576 12.816C148.043 13.712 147.542 14.7253 147.072 15.856C146.624 16.9867 146.272 18.16 146.016 19.376C145.76 20.5707 145.632 21.744 145.632 22.896C145.632 23.7493 145.718 24.3467 145.888 24.688C146.08 25.0293 146.336 25.2 146.656 25.2ZM154.304 9.52C154.944 9.49867 155.563 9.456 156.16 9.392C156.758 9.328 157.312 9.22133 157.824 9.072L153.76 23.248C153.696 23.4827 153.632 23.7493 153.568 24.048C153.526 24.3253 153.536 24.5707 153.6 24.784C153.686 24.9973 153.888 25.104 154.208 25.104C154.592 25.104 154.976 24.9013 155.36 24.496C155.744 24.0693 156.128 23.2693 156.512 22.096L156.96 20.784H157.568L156.768 23.12C156.47 23.9947 156.107 24.6667 155.68 25.136C155.254 25.6053 154.795 25.936 154.304 26.128C153.835 26.3413 153.376 26.448 152.928 26.448C151.99 26.448 151.328 26.1493 150.944 25.552C150.667 25.0827 150.571 24.5173 150.656 23.856C150.763 23.1733 150.912 22.4693 151.104 21.744L154.304 9.52Z" fill="#62888D"/>
</svg>
