<svg width="520" height="180" viewBox="0 0 520 180" fill="none" xmlns="http://www.w3.org/2000/svg">
<path d="M225.9 106.076C229.42 106.076 232.3 106.609 234.54 107.676C236.834 108.689 238.86 109.889 240.62 111.276C241.687 112.076 242.487 112.182 243.02 111.596C243.607 110.956 244.007 109.489 244.22 107.196H246.06C245.954 109.222 245.874 111.702 245.82 114.636C245.767 117.569 245.74 121.436 245.74 126.236H243.9C243.58 123.836 243.234 121.836 242.86 120.236C242.487 118.582 241.954 117.169 241.26 115.996C240.62 114.822 239.714 113.702 238.54 112.636C237.1 111.036 235.367 109.862 233.34 109.116C231.367 108.316 229.287 107.916 227.1 107.916C224.327 107.916 221.9 108.662 219.82 110.156C217.794 111.596 216.087 113.596 214.7 116.156C213.367 118.662 212.354 121.596 211.66 124.956C211.02 128.316 210.7 131.889 210.7 135.676C210.7 139.569 211.047 143.196 211.74 146.556C212.487 149.862 213.554 152.769 214.94 155.276C216.38 157.729 218.14 159.649 220.22 161.036C222.354 162.422 224.807 163.116 227.58 163.116C229.554 163.116 231.58 162.742 233.66 161.996C235.74 161.249 237.447 160.102 238.78 158.556C240.54 156.956 241.74 155.062 242.38 152.876C243.02 150.636 243.527 147.676 243.9 143.996H245.74C245.74 149.009 245.767 153.062 245.82 156.156C245.874 159.196 245.954 161.756 246.06 163.836H244.22C244.007 161.542 243.634 160.102 243.1 159.516C242.62 158.929 241.794 159.009 240.62 159.756C238.647 161.142 236.54 162.369 234.3 163.436C232.114 164.449 229.287 164.956 225.82 164.956C220.38 164.956 215.607 163.809 211.5 161.516C207.394 159.222 204.194 155.916 201.9 151.596C199.66 147.276 198.54 142.076 198.54 135.996C198.54 130.022 199.714 124.796 202.06 120.316C204.407 115.836 207.634 112.342 211.74 109.836C215.847 107.329 220.567 106.076 225.9 106.076ZM273.276 121.356C276.956 121.356 280.209 122.102 283.036 123.596C285.916 125.036 288.182 127.356 289.836 130.556C291.542 133.756 292.396 137.969 292.396 143.196C292.396 148.422 291.542 152.636 289.836 155.836C288.182 159.036 285.916 161.356 283.036 162.796C280.209 164.236 276.956 164.956 273.276 164.956C269.596 164.956 266.316 164.236 263.436 162.796C260.556 161.356 258.289 159.036 256.636 155.836C254.982 152.636 254.156 148.422 254.156 143.196C254.156 137.969 254.982 133.756 256.636 130.556C258.289 127.356 260.556 125.036 263.436 123.596C266.316 122.102 269.596 121.356 273.276 121.356ZM273.276 122.956C270.769 122.956 268.716 124.556 267.116 127.756C265.569 130.902 264.796 136.049 264.796 143.196C264.796 150.342 265.569 155.489 267.116 158.636C268.716 161.782 270.769 163.356 273.276 163.356C275.729 163.356 277.756 161.782 279.356 158.636C280.956 155.489 281.756 150.342 281.756 143.196C281.756 136.049 280.956 130.902 279.356 127.756C277.756 124.556 275.729 122.956 273.276 122.956ZM317.963 121.356C321.643 121.356 324.897 122.102 327.723 123.596C330.603 125.036 332.87 127.356 334.523 130.556C336.23 133.756 337.083 137.969 337.083 143.196C337.083 148.422 336.23 152.636 334.523 155.836C332.87 159.036 330.603 161.356 327.723 162.796C324.897 164.236 321.643 164.956 317.963 164.956C314.283 164.956 311.003 164.236 308.123 162.796C305.243 161.356 302.977 159.036 301.323 155.836C299.67 152.636 298.843 148.422 298.843 143.196C298.843 137.969 299.67 133.756 301.323 130.556C302.977 127.356 305.243 125.036 308.123 123.596C311.003 122.102 314.283 121.356 317.963 121.356ZM317.963 122.956C315.457 122.956 313.403 124.556 311.803 127.756C310.257 130.902 309.483 136.049 309.483 143.196C309.483 150.342 310.257 155.489 311.803 158.636C313.403 161.782 315.457 163.356 317.963 163.356C320.417 163.356 322.443 161.782 324.043 158.636C325.643 155.489 326.443 150.342 326.443 143.196C326.443 136.049 325.643 130.902 324.043 127.756C322.443 124.556 320.417 122.956 317.963 122.956ZM356.51 101.196V156.396C356.51 158.636 356.883 160.156 357.63 160.956C358.376 161.756 359.656 162.156 361.47 162.156V163.836C360.563 163.782 359.176 163.729 357.31 163.676C355.443 163.569 353.55 163.516 351.63 163.516C349.656 163.516 347.63 163.569 345.55 163.676C343.523 163.729 342.003 163.782 340.99 163.836V162.156C342.963 162.156 344.35 161.756 345.15 160.956C346.003 160.156 346.43 158.636 346.43 156.396V110.796C346.43 108.396 346.03 106.636 345.23 105.516C344.483 104.342 343.07 103.756 340.99 103.756V102.076C342.696 102.236 344.35 102.316 345.95 102.316C347.976 102.316 349.87 102.236 351.63 102.076C353.39 101.862 355.016 101.569 356.51 101.196ZM382.43 122.476V124.076C380.83 124.396 379.283 125.009 377.79 125.916C376.296 126.769 374.83 127.969 373.39 129.516L365.47 137.756L366.35 135.996L380.43 157.996C381.176 159.062 381.87 159.969 382.51 160.716C383.203 161.409 384.056 161.889 385.07 162.156V163.836C384.376 163.782 383.283 163.729 381.79 163.676C380.296 163.569 378.803 163.516 377.31 163.516C375.496 163.516 373.63 163.569 371.71 163.676C369.843 163.729 368.43 163.782 367.47 163.836V162.156C368.536 162.156 369.256 161.916 369.63 161.436C370.056 160.902 370.003 160.236 369.47 159.436L361.15 145.436C360.403 144.262 359.683 143.516 358.99 143.196C358.296 142.822 357.363 142.636 356.19 142.636V141.036C357.523 140.929 358.616 140.689 359.47 140.316C360.376 139.942 361.23 139.356 362.03 138.556L368.03 132.556C369.79 130.796 370.67 129.302 370.67 128.076C370.723 126.849 370.163 125.916 368.99 125.276C367.87 124.582 366.403 124.182 364.59 124.076V122.476C366.03 122.529 367.63 122.609 369.39 122.716C371.15 122.769 372.643 122.796 373.87 122.796C374.83 122.796 375.843 122.796 376.91 122.796C378.03 122.742 379.07 122.689 380.03 122.636C381.043 122.582 381.843 122.529 382.43 122.476ZM397.407 102.076C399.327 102.076 400.9 102.609 402.127 103.676C403.354 104.742 403.967 106.156 403.967 107.916C403.967 109.676 403.354 111.089 402.127 112.156C400.9 113.222 399.327 113.756 397.407 113.756C395.487 113.756 393.914 113.222 392.687 112.156C391.46 111.089 390.847 109.676 390.847 107.916C390.847 106.156 391.46 104.742 392.687 103.676C393.914 102.609 395.487 102.076 397.407 102.076ZM403.007 121.596V156.396C403.007 158.636 403.407 160.156 404.207 160.956C405.06 161.756 406.474 162.156 408.447 162.156V163.836C407.487 163.782 406.02 163.729 404.047 163.676C402.074 163.569 400.074 163.516 398.047 163.516C396.074 163.516 394.074 163.569 392.047 163.676C390.02 163.729 388.5 163.782 387.487 163.836V162.156C389.46 162.156 390.847 161.756 391.647 160.956C392.5 160.156 392.927 158.636 392.927 156.396V131.276C392.927 128.822 392.527 127.036 391.727 125.916C390.98 124.742 389.567 124.156 387.487 124.156V122.476C389.194 122.636 390.847 122.716 392.447 122.716C394.42 122.716 396.287 122.636 398.047 122.476C399.86 122.262 401.514 121.969 403.007 121.596ZM432.256 121.356C436.95 121.356 440.63 122.769 443.296 125.596C445.963 128.422 447.296 132.929 447.296 139.116H420.336L420.256 137.596H438.016C438.123 134.982 437.963 132.582 437.536 130.396C437.11 128.156 436.416 126.369 435.456 125.036C434.55 123.702 433.35 123.036 431.856 123.036C429.83 123.036 428.07 124.236 426.576 126.636C425.083 128.982 424.15 132.849 423.776 138.236L424.096 138.716C423.99 139.409 423.91 140.156 423.856 140.956C423.856 141.756 423.856 142.556 423.856 143.356C423.856 147.036 424.39 150.076 425.456 152.476C426.523 154.876 427.91 156.636 429.616 157.756C431.323 158.876 433.083 159.436 434.896 159.436C436.123 159.436 437.376 159.249 438.656 158.876C439.936 158.502 441.19 157.809 442.416 156.796C443.643 155.782 444.763 154.342 445.776 152.476L447.296 153.116C446.71 154.982 445.723 156.849 444.336 158.716C443.003 160.529 441.27 162.022 439.136 163.196C437.003 164.369 434.496 164.956 431.616 164.956C427.99 164.956 424.79 164.156 422.016 162.556C419.243 160.956 417.083 158.582 415.536 155.436C413.99 152.236 413.216 148.342 413.216 143.756C413.216 138.902 414.016 134.822 415.616 131.516C417.27 128.209 419.536 125.702 422.416 123.996C425.296 122.236 428.576 121.356 432.256 121.356ZM467.767 121.356C470.007 121.356 471.927 121.676 473.527 122.316C475.127 122.956 476.3 123.516 477.047 123.996C478.86 125.329 479.954 124.476 480.327 121.436H482.087C481.98 122.982 481.9 124.822 481.847 126.956C481.794 129.036 481.767 131.836 481.767 135.356H480.007C479.74 133.382 479.234 131.462 478.487 129.596C477.74 127.729 476.647 126.182 475.207 124.956C473.767 123.676 471.874 123.036 469.527 123.036C467.874 123.036 466.487 123.516 465.367 124.476C464.3 125.436 463.767 126.796 463.767 128.556C463.767 130.156 464.247 131.569 465.207 132.796C466.167 133.969 467.394 135.089 468.887 136.156C470.434 137.169 472.034 138.289 473.687 139.516C475.607 140.796 477.314 142.102 478.807 143.436C480.3 144.716 481.5 146.156 482.407 147.756C483.314 149.302 483.767 151.142 483.767 153.276C483.767 155.729 483.074 157.836 481.687 159.596C480.354 161.302 478.567 162.636 476.327 163.596C474.14 164.502 471.714 164.956 469.047 164.956C467.607 164.956 466.3 164.822 465.127 164.556C463.954 164.289 462.914 163.942 462.007 163.516C461.314 163.142 460.674 162.796 460.087 162.476C459.554 162.156 458.994 161.889 458.407 161.676C457.874 161.409 457.394 161.516 456.967 161.996C456.594 162.476 456.3 163.276 456.087 164.396H454.327C454.434 162.689 454.514 160.609 454.567 158.156C454.62 155.702 454.647 152.449 454.647 148.396H456.407C456.78 151.329 457.34 153.916 458.087 156.156C458.887 158.342 460.034 160.076 461.527 161.356C463.02 162.582 464.94 163.196 467.287 163.196C468.3 163.196 469.26 162.982 470.167 162.556C471.127 162.129 471.9 161.462 472.487 160.556C473.127 159.649 473.447 158.422 473.447 156.876C473.447 154.529 472.647 152.582 471.047 151.036C469.447 149.489 467.447 147.836 465.047 146.076C463.234 144.742 461.527 143.436 459.927 142.156C458.38 140.876 457.1 139.436 456.087 137.836C455.127 136.236 454.647 134.342 454.647 132.156C454.647 129.756 455.26 127.782 456.487 126.236C457.714 124.636 459.314 123.436 461.287 122.636C463.314 121.782 465.474 121.356 467.767 121.356Z" fill="#32516D"/>
<path d="M153.237 96.2132C155.264 96.2132 156.944 96.4532 158.277 96.9332C159.611 97.3598 160.704 97.9198 161.557 98.6132C162.251 99.1465 162.811 99.7332 163.237 100.373C163.664 101.013 163.984 101.653 164.197 102.293C164.411 102.933 164.517 103.546 164.517 104.133C164.517 105.467 164.037 106.507 163.077 107.253C162.171 108 161.157 108.373 160.037 108.373C158.971 108.373 158.011 108.027 157.157 107.333C156.304 106.64 155.877 105.653 155.877 104.373C155.877 103.2 156.277 102.213 157.077 101.413C157.877 100.56 158.891 100.08 160.117 99.9732C159.904 99.2798 159.237 98.6932 158.117 98.2132C157.051 97.6798 155.691 97.4132 154.037 97.4132C151.317 97.4132 149.077 98.2398 147.317 99.8932C145.611 101.493 144.757 103.84 144.757 106.933C144.757 108.427 145.024 109.947 145.557 111.493C146.144 113.04 147.237 114.56 148.837 116.053C149.744 115.893 150.677 115.787 151.637 115.733C152.597 115.627 153.317 115.573 153.797 115.573C154.757 115.573 155.531 115.733 156.117 116.053C156.704 116.373 156.997 116.827 156.997 117.413C156.997 117.893 156.784 118.267 156.357 118.533C155.984 118.8 155.451 118.933 154.757 118.933C153.744 118.933 152.677 118.72 151.557 118.293C150.437 117.813 149.557 117.44 148.917 117.173C145.824 118.08 143.317 119.573 141.397 121.653C139.477 123.68 138.517 126.56 138.517 130.293C138.517 133.973 139.477 137.093 141.397 139.653C143.317 142.213 145.877 144.187 149.077 145.573C152.331 146.907 155.957 147.573 159.957 147.573C162.784 147.573 165.451 147.253 167.957 146.613C170.517 145.92 172.757 144.933 174.677 143.653C176.651 142.373 178.197 140.853 179.317 139.093C180.437 137.28 180.997 135.227 180.997 132.933C180.997 131.92 180.784 130.64 180.357 129.093C179.931 127.493 179.051 125.947 177.717 124.453C176.384 122.907 174.331 121.707 171.557 120.853L172.517 120.053C176.411 121.227 179.184 123.12 180.837 125.733C182.491 128.293 183.317 131.173 183.317 134.373C183.317 137.573 182.357 140.64 180.437 143.573C178.517 146.507 175.744 148.907 172.117 150.773C168.491 152.587 164.091 153.493 158.917 153.493C155.451 153.493 152.144 153.04 148.997 152.133C145.904 151.227 143.157 149.92 140.757 148.213C138.357 146.453 136.464 144.347 135.077 141.893C133.691 139.44 132.997 136.667 132.997 133.573C132.997 130.693 133.557 128.24 134.677 126.213C135.797 124.133 137.184 122.427 138.837 121.093C140.491 119.76 142.144 118.747 143.797 118.053C145.451 117.307 146.784 116.8 147.797 116.533C146.037 115.733 144.544 114.8 143.317 113.733C142.144 112.613 141.237 111.413 140.597 110.133C140.011 108.8 139.717 107.493 139.717 106.213C139.717 104.933 140.011 103.707 140.597 102.533C141.184 101.307 142.037 100.213 143.157 99.2532C144.277 98.2932 145.664 97.5465 147.317 97.0132C149.024 96.4798 150.997 96.2132 153.237 96.2132ZM182.357 94.6132C185.664 94.6132 188.437 95.5732 190.677 97.4932C192.917 99.3598 194.037 102 194.037 105.413C194.037 107.227 193.691 108.853 192.997 110.293C192.357 111.68 191.451 112.907 190.277 113.973C189.157 115.04 187.877 115.92 186.437 116.613C185.211 117.2 183.584 117.84 181.557 118.533C179.584 119.227 177.451 119.92 175.157 120.613C172.917 121.307 170.757 122 168.677 122.693C166.651 123.333 164.997 123.893 163.717 124.373C161.744 125.12 160.064 126.053 158.677 127.173C157.344 128.24 156.677 129.627 156.677 131.333C156.677 132.72 157.077 133.893 157.877 134.853C158.677 135.813 159.637 136.533 160.757 137.013C161.931 137.493 163.024 137.733 164.037 137.733C164.517 137.733 165.104 137.68 165.797 137.573C166.544 137.413 167.211 137.2 167.797 136.933C168.384 136.667 168.731 136.347 168.837 135.973C167.984 135.813 167.131 135.44 166.277 134.853C165.477 134.213 165.077 133.227 165.077 131.893C165.077 130.613 165.504 129.6 166.357 128.853C167.211 128.107 168.251 127.733 169.477 127.733C170.757 127.733 171.771 128.133 172.517 128.933C173.317 129.733 173.717 130.773 173.717 132.053C173.717 133.547 173.211 134.827 172.197 135.893C171.237 136.907 170.011 137.68 168.517 138.213C167.077 138.693 165.637 138.933 164.197 138.933C162.704 138.933 161.184 138.613 159.637 137.973C158.091 137.333 156.811 136.347 155.797 135.013C154.784 133.627 154.277 131.813 154.277 129.573C154.277 127.707 154.677 126.053 155.477 124.613C156.331 123.173 157.584 121.893 159.237 120.773C160.891 119.653 162.917 118.693 165.317 117.893C166.917 117.36 168.864 116.773 171.157 116.133C173.451 115.493 175.797 114.8 178.197 114.053C180.651 113.306 182.864 112.48 184.837 111.573C187.504 110.346 189.317 109.093 190.277 107.813C191.237 106.533 191.717 105.227 191.717 103.893C191.717 102.346 191.291 100.986 190.437 99.8132C189.584 98.5865 188.437 97.6265 186.997 96.9332C185.611 96.1865 184.091 95.8132 182.437 95.8132C181.797 95.8132 181.264 95.8665 180.837 95.9732C180.411 96.0798 180.144 96.2665 180.037 96.5332C180.784 96.9065 181.344 97.4398 181.717 98.1332C182.091 98.8265 182.277 99.5198 182.277 100.213C182.277 101.333 181.824 102.266 180.917 103.013C180.064 103.76 179.024 104.133 177.797 104.133C176.784 104.133 175.824 103.813 174.917 103.173C174.011 102.48 173.557 101.466 173.557 100.133C173.557 98.7465 174.011 97.6532 174.917 96.8532C175.877 96.0532 177.024 95.4932 178.357 95.1732C179.744 94.7998 181.077 94.6132 182.357 94.6132Z" fill="#3C3C3C"/>
<path d="M57.2344 27.24C60.7544 27.24 63.6344 27.7733 65.8744 28.84C68.1678 29.8533 70.1944 31.0533 71.9544 32.44C73.0211 33.24 73.8211 33.3467 74.3544 32.76C74.9411 32.12 75.3411 30.6533 75.5544 28.36H77.3944C77.2878 30.3867 77.2078 32.8667 77.1544 35.8C77.1011 38.7333 77.0744 42.6 77.0744 47.4H75.2344C74.9144 45 74.5678 43 74.1944 41.4C73.8211 39.7467 73.2878 38.3333 72.5944 37.16C71.9544 35.9867 71.0478 34.8667 69.8744 33.8C68.4344 32.2 66.7011 31.0267 64.6744 30.28C62.7011 29.48 60.6211 29.08 58.4344 29.08C55.6611 29.08 53.2344 29.8267 51.1544 31.32C49.1278 32.76 47.4211 34.76 46.0344 37.32C44.7011 39.8267 43.6878 42.76 42.9944 46.12C42.3544 49.48 42.0344 53.0533 42.0344 56.84C42.0344 60.7333 42.3811 64.36 43.0744 67.72C43.8211 71.0267 44.8878 73.9333 46.2744 76.44C47.7144 78.8933 49.4744 80.8133 51.5544 82.2C53.6878 83.5867 56.1411 84.28 58.9144 84.28C60.8878 84.28 62.9144 83.9067 64.9944 83.16C67.0744 82.4133 68.7811 81.2667 70.1144 79.72C71.8744 78.12 73.0744 76.2267 73.7144 74.04C74.3544 71.8 74.8611 68.84 75.2344 65.16H77.0744C77.0744 70.1733 77.1011 74.2267 77.1544 77.32C77.2078 80.36 77.2878 82.92 77.3944 85H75.5544C75.3411 82.7067 74.9678 81.2667 74.4344 80.68C73.9544 80.0933 73.1278 80.1733 71.9544 80.92C69.9811 82.3067 67.8744 83.5333 65.6344 84.6C63.4478 85.6133 60.6211 86.12 57.1544 86.12C51.7144 86.12 46.9411 84.9733 42.8344 82.68C38.7278 80.3867 35.5278 77.08 33.2344 72.76C30.9944 68.44 29.8744 63.24 29.8744 57.16C29.8744 51.1867 31.0478 45.96 33.3944 41.48C35.7411 37 38.9678 33.5067 43.0744 31C47.1811 28.4933 51.9011 27.24 57.2344 27.24ZM95.4101 85.56C93.1167 85.56 91.1701 85.1333 89.5701 84.28C87.9701 83.3733 86.7701 82.1733 85.9701 80.68C85.1701 79.1333 84.7701 77.4267 84.7701 75.56C84.7701 73.2667 85.3034 71.4 86.3701 69.96C87.4367 68.4667 88.7967 67.2933 90.4501 66.44C92.1567 65.5333 93.9434 64.7867 95.8101 64.2C97.6767 63.56 99.4367 62.9733 101.09 62.44C102.743 61.8533 104.103 61.1867 105.17 60.44C106.237 59.6933 106.77 58.7067 106.77 57.48V51.64C106.77 49.9333 106.503 48.5467 105.97 47.48C105.49 46.36 104.743 45.5333 103.73 45C102.77 44.4133 101.543 44.12 100.05 44.12C98.9301 44.12 97.7567 44.28 96.5301 44.6C95.3034 44.92 94.2901 45.5333 93.4901 46.44C94.8767 46.8133 95.9434 47.5067 96.6901 48.52C97.4901 49.5333 97.8901 50.76 97.8901 52.2C97.8901 53.8533 97.3301 55.16 96.2101 56.12C95.1434 57.0267 93.7834 57.48 92.1301 57.48C90.3701 57.48 89.0367 56.92 88.1301 55.8C87.2234 54.68 86.7701 53.3733 86.7701 51.88C86.7701 50.3867 87.1434 49.16 87.8901 48.2C88.6367 47.1867 89.6767 46.28 91.0101 45.48C92.3434 44.5733 94.0501 43.8533 96.1301 43.32C98.2101 42.7867 100.477 42.52 102.93 42.52C105.277 42.52 107.357 42.7867 109.17 43.32C110.983 43.8 112.53 44.68 113.81 45.96C115.09 47.1867 115.917 48.7067 116.29 50.52C116.663 52.3333 116.85 54.5467 116.85 57.16V79.08C116.85 80.4133 117.01 81.3733 117.33 81.96C117.65 82.4933 118.157 82.76 118.85 82.76C119.383 82.76 119.89 82.6267 120.37 82.36C120.85 82.0933 121.383 81.72 121.97 81.24L122.85 82.6C121.677 83.5067 120.45 84.2267 119.17 84.76C117.89 85.2933 116.343 85.56 114.53 85.56C112.663 85.56 111.17 85.2933 110.05 84.76C108.983 84.2267 108.183 83.4533 107.65 82.44C107.17 81.4267 106.903 80.2267 106.85 78.84C105.57 80.9733 103.997 82.6267 102.13 83.8C100.263 84.9733 98.0234 85.56 95.4101 85.56ZM100.21 81.08C101.49 81.08 102.663 80.7333 103.73 80.04C104.85 79.3467 105.863 78.3067 106.77 76.92V60.76C106.237 61.56 105.463 62.28 104.45 62.92C103.49 63.56 102.45 64.2 101.33 64.84C100.21 65.48 99.1434 66.2267 98.1301 67.08C97.1701 67.88 96.3434 68.8933 95.6501 70.12C95.0101 71.2933 94.6901 72.8133 94.6901 74.68C94.6901 76.76 95.1967 78.36 96.2101 79.48C97.2234 80.5467 98.5567 81.08 100.21 81.08ZM153.869 42.52C156.109 42.52 157.896 42.8133 159.229 43.4C160.616 43.9867 161.736 44.7333 162.589 45.64C163.549 46.6533 164.216 47.96 164.589 49.56C165.016 51.16 165.229 53.32 165.229 56.04V77.56C165.229 79.8 165.629 81.32 166.429 82.12C167.283 82.92 168.696 83.32 170.669 83.32V85C169.709 84.9467 168.216 84.8933 166.189 84.84C164.216 84.7333 162.296 84.68 160.429 84.68C158.456 84.68 156.536 84.7333 154.669 84.84C152.803 84.8933 151.416 84.9467 150.509 85V83.32C152.216 83.32 153.416 82.92 154.109 82.12C154.803 81.32 155.149 79.8 155.149 77.56V53.32C155.149 51.88 155.016 50.6 154.749 49.48C154.483 48.3067 153.949 47.4 153.149 46.76C152.349 46.0667 151.203 45.72 149.709 45.72C147.949 45.72 146.376 46.2 144.989 47.16C143.656 48.12 142.589 49.4533 141.789 51.16C141.043 52.8133 140.669 54.68 140.669 56.76V77.56C140.669 79.8 141.016 81.32 141.709 82.12C142.403 82.92 143.603 83.32 145.309 83.32V85C144.403 84.9467 143.043 84.8933 141.229 84.84C139.416 84.7333 137.576 84.68 135.709 84.68C133.736 84.68 131.736 84.7333 129.709 84.84C127.683 84.8933 126.163 84.9467 125.149 85V83.32C127.123 83.32 128.509 82.92 129.309 82.12C130.163 81.32 130.589 79.8 130.589 77.56V52.36C130.589 49.96 130.189 48.2 129.389 47.08C128.643 45.9067 127.229 45.32 125.149 45.32V43.64C126.856 43.8 128.509 43.88 130.109 43.88C132.083 43.88 133.949 43.8 135.709 43.64C137.523 43.4267 139.176 43.1333 140.669 42.76V50.76C142.003 47.72 143.843 45.5867 146.189 44.36C148.536 43.1333 151.096 42.52 153.869 42.52ZM212.141 22.36V76.28C212.141 78.68 212.541 80.4667 213.341 81.64C214.141 82.76 215.555 83.32 217.581 83.32V85C215.928 84.84 214.275 84.76 212.621 84.76C210.648 84.76 208.781 84.84 207.021 85C205.261 85.16 203.608 85.4533 202.061 85.88V31.96C202.061 29.56 201.661 27.8 200.861 26.68C200.115 25.5067 198.701 24.92 196.621 24.92V23.24C198.328 23.4 199.981 23.48 201.581 23.48C203.608 23.48 205.501 23.4 207.261 23.24C209.021 23.0267 210.648 22.7333 212.141 22.36ZM193.021 42.52C195.368 42.52 197.475 42.9733 199.341 43.88C201.208 44.7867 202.595 46.3067 203.501 48.44L202.541 49.24C201.795 47.6933 200.781 46.5467 199.501 45.8C198.221 45.0533 196.781 44.68 195.181 44.68C192.301 44.68 189.981 46.3067 188.221 49.56C186.515 52.76 185.661 57.6933 185.661 64.36C185.661 68.84 186.008 72.4667 186.701 75.24C187.395 77.96 188.381 79.9333 189.661 81.16C190.995 82.3867 192.568 83 194.381 83C196.301 83 198.035 82.2267 199.581 80.68C201.128 79.08 202.035 76.8133 202.301 73.88L202.861 76.12C202.168 79.3733 200.861 81.8533 198.941 83.56C197.021 85.2667 194.488 86.12 191.341 86.12C188.141 86.12 185.288 85.3467 182.781 83.8C180.328 82.2 178.408 79.8 177.021 76.6C175.688 73.3467 175.021 69.24 175.021 64.28C175.021 59.4267 175.821 55.4 177.421 52.2C179.021 48.9467 181.181 46.52 183.901 44.92C186.621 43.32 189.661 42.52 193.021 42.52ZM259.565 43.64V45.32C258.552 45.5333 257.592 46.0933 256.685 47C255.832 47.9067 255.005 49.5067 254.205 51.8L242.365 84.28L239.885 88.04L223.405 49.8C222.392 47.7733 221.432 46.52 220.525 46.04C219.618 45.56 218.872 45.32 218.285 45.32V43.64C219.832 43.8 221.432 43.9333 223.085 44.04C224.792 44.0933 226.498 44.12 228.205 44.12C230.178 44.12 232.072 44.0667 233.885 43.96C235.752 43.8533 237.485 43.7467 239.085 43.64V45.32C237.858 45.32 236.765 45.4 235.805 45.56C234.845 45.72 234.205 46.1733 233.885 46.92C233.618 47.6133 233.832 48.84 234.525 50.6L244.525 75L243.885 75.32L250.925 56.28C251.832 53.7733 252.205 51.7467 252.045 50.2C251.885 48.6533 251.298 47.48 250.285 46.68C249.272 45.88 247.885 45.4267 246.125 45.32V43.64C246.978 43.6933 247.832 43.7467 248.685 43.8C249.538 43.8533 250.365 43.9067 251.165 43.96C251.965 43.96 252.738 43.96 253.485 43.96C254.605 43.96 255.698 43.9333 256.765 43.88C257.885 43.8267 258.818 43.7467 259.565 43.64ZM242.365 84.28L239.325 92.36C238.845 93.6933 238.312 94.8133 237.725 95.72C237.192 96.68 236.578 97.4533 235.885 98.04C235.085 98.7333 234.098 99.24 232.925 99.56C231.805 99.88 230.552 100.04 229.165 100.04C227.938 100.04 226.738 99.8267 225.565 99.4C224.445 98.9733 223.485 98.3333 222.685 97.48C221.938 96.6267 221.565 95.5067 221.565 94.12C221.565 92.6267 222.072 91.4267 223.085 90.52C224.098 89.6133 225.485 89.16 227.245 89.16C228.792 89.16 230.045 89.5333 231.005 90.28C232.018 91.08 232.525 92.2533 232.525 93.8C232.525 94.8133 232.232 95.72 231.645 96.52C231.058 97.32 230.232 97.9333 229.165 98.36C229.432 98.4133 229.672 98.44 229.885 98.44C230.152 98.4933 230.365 98.52 230.525 98.52C232.072 98.52 233.458 98.0133 234.685 97C235.912 95.9867 236.898 94.3867 237.645 92.2L240.525 84.28H242.365Z" fill="#32516D"/>
</svg>
