<svg width="525" height="180" viewBox="0 0 525 180" fill="none" xmlns="http://www.w3.org/2000/svg">
<path d="M31.7992 28.24C35.3192 28.24 38.1992 28.7733 40.4392 29.84C42.7326 30.8533 44.7592 32.0533 46.5192 33.44C47.5859 34.24 48.3859 34.3467 48.9193 33.76C49.5059 33.12 49.9059 31.6533 50.1193 29.36H51.9593C51.8526 31.3867 51.7726 33.8667 51.7192 36.8C51.6659 39.7333 51.6392 43.6 51.6392 48.4H49.7992C49.4793 46 49.1326 44 48.7592 42.4C48.3859 40.7467 47.8526 39.3333 47.1593 38.16C46.5192 36.9867 45.6126 35.8667 44.4392 34.8C42.9992 33.2 41.2659 32.0267 39.2392 31.28C37.2659 30.48 35.1859 30.08 32.9992 30.08C30.2259 30.08 27.7992 30.8267 25.7192 32.32C23.6926 33.76 21.9859 35.76 20.5992 38.32C19.2659 40.8267 18.2526 43.76 17.5592 47.12C16.9192 50.48 16.5992 54.0533 16.5992 57.84C16.5992 61.7333 16.9459 65.36 17.6392 68.72C18.3859 72.0267 19.4526 74.9333 20.8392 77.44C22.2792 79.8933 24.0392 81.8133 26.1192 83.2C28.2526 84.5867 30.7059 85.28 33.4792 85.28C35.4526 85.28 37.4792 84.9067 39.5592 84.16C41.6392 83.4133 43.3459 82.2667 44.6792 80.72C46.4392 79.12 47.6392 77.2267 48.2793 75.04C48.9192 72.8 49.4259 69.84 49.7992 66.16H51.6392C51.6392 71.1733 51.6659 75.2267 51.7192 78.32C51.7726 81.36 51.8526 83.92 51.9593 86H50.1193C49.9059 83.7067 49.5326 82.2667 48.9993 81.68C48.5193 81.0933 47.6926 81.1733 46.5192 81.92C44.5459 83.3067 42.4392 84.5333 40.1992 85.6C38.0126 86.6133 35.1859 87.12 31.7192 87.12C26.2792 87.12 21.5059 85.9733 17.3992 83.68C13.2926 81.3867 10.0926 78.08 7.79925 73.76C5.55925 69.44 4.43925 64.24 4.43925 58.16C4.43925 52.1867 5.61258 46.96 7.95925 42.48C10.3059 38 13.5326 34.5067 17.6392 32C21.7459 29.4933 26.4659 28.24 31.7992 28.24ZM69.9749 86.56C67.6815 86.56 65.7349 86.1333 64.1349 85.28C62.5349 84.3733 61.3349 83.1733 60.5349 81.68C59.7349 80.1333 59.3349 78.4267 59.3349 76.56C59.3349 74.2667 59.8682 72.4 60.9349 70.96C62.0015 69.4667 63.3615 68.2933 65.0149 67.44C66.7215 66.5333 68.5082 65.7867 70.3749 65.2C72.2415 64.56 74.0015 63.9733 75.6549 63.44C77.3082 62.8533 78.6682 62.1867 79.7349 61.44C80.8015 60.6933 81.3349 59.7067 81.3349 58.48V52.64C81.3349 50.9333 81.0682 49.5467 80.5349 48.48C80.0549 47.36 79.3082 46.5333 78.2949 46C77.3349 45.4133 76.1082 45.12 74.6149 45.12C73.4949 45.12 72.3215 45.28 71.0949 45.6C69.8682 45.92 68.8549 46.5333 68.0549 47.44C69.4415 47.8133 70.5082 48.5067 71.2549 49.52C72.0549 50.5333 72.4549 51.76 72.4549 53.2C72.4549 54.8533 71.8949 56.16 70.7749 57.12C69.7082 58.0267 68.3482 58.48 66.6949 58.48C64.9349 58.48 63.6015 57.92 62.6949 56.8C61.7882 55.68 61.3349 54.3733 61.3349 52.88C61.3349 51.3867 61.7082 50.16 62.4549 49.2C63.2015 48.1867 64.2415 47.28 65.5749 46.48C66.9082 45.5733 68.6149 44.8533 70.6949 44.32C72.7749 43.7867 75.0415 43.52 77.4949 43.52C79.8415 43.52 81.9215 43.7867 83.7349 44.32C85.5482 44.8 87.0949 45.68 88.3749 46.96C89.6549 48.1867 90.4815 49.7067 90.8549 51.52C91.2282 53.3333 91.4149 55.5467 91.4149 58.16V80.08C91.4149 81.4133 91.5749 82.3733 91.8949 82.96C92.2149 83.4933 92.7215 83.76 93.4149 83.76C93.9482 83.76 94.4549 83.6267 94.9349 83.36C95.4149 83.0933 95.9482 82.72 96.5349 82.24L97.4149 83.6C96.2415 84.5067 95.0149 85.2267 93.7349 85.76C92.4549 86.2933 90.9082 86.56 89.0949 86.56C87.2282 86.56 85.7349 86.2933 84.6149 85.76C83.5482 85.2267 82.7482 84.4533 82.2149 83.44C81.7349 82.4267 81.4682 81.2267 81.4149 79.84C80.1349 81.9733 78.5615 83.6267 76.6949 84.8C74.8282 85.9733 72.5882 86.56 69.9749 86.56ZM74.7749 82.08C76.0549 82.08 77.2282 81.7333 78.2949 81.04C79.4149 80.3467 80.4282 79.3067 81.3349 77.92V61.76C80.8015 62.56 80.0282 63.28 79.0149 63.92C78.0549 64.56 77.0149 65.2 75.8949 65.84C74.7749 66.48 73.7082 67.2267 72.6949 68.08C71.7349 68.88 70.9082 69.8933 70.2149 71.12C69.5749 72.2933 69.2549 73.8133 69.2549 75.68C69.2549 77.76 69.7615 79.36 70.7749 80.48C71.7882 81.5467 73.1215 82.08 74.7749 82.08ZM114.674 23.36V78.56C114.674 80.8 115.048 82.32 115.794 83.12C116.541 83.92 117.821 84.32 119.634 84.32V86C118.728 85.9467 117.341 85.8933 115.474 85.84C113.608 85.7333 111.714 85.68 109.794 85.68C107.821 85.68 105.794 85.7333 103.714 85.84C101.688 85.8933 100.168 85.9467 99.1542 86V84.32C101.128 84.32 102.514 83.92 103.314 83.12C104.168 82.32 104.594 80.8 104.594 78.56V32.96C104.594 30.56 104.194 28.8 103.394 27.68C102.648 26.5067 101.234 25.92 99.1542 25.92V24.24C100.861 24.4 102.514 24.48 104.114 24.48C106.141 24.48 108.034 24.4 109.794 24.24C111.554 24.0267 113.181 23.7333 114.674 23.36ZM140.594 44.64V46.24C138.994 46.56 137.448 47.1733 135.954 48.08C134.461 48.9333 132.994 50.1333 131.554 51.68L123.634 59.92L124.514 58.16L138.594 80.16C139.341 81.2267 140.034 82.1333 140.674 82.88C141.368 83.5733 142.221 84.0533 143.234 84.32V86C142.541 85.9467 141.448 85.8933 139.954 85.84C138.461 85.7333 136.968 85.68 135.474 85.68C133.661 85.68 131.794 85.7333 129.874 85.84C128.008 85.8933 126.594 85.9467 125.634 86V84.32C126.701 84.32 127.421 84.08 127.794 83.6C128.221 83.0667 128.168 82.4 127.634 81.6L119.314 67.6C118.568 66.4267 117.848 65.68 117.154 65.36C116.461 64.9867 115.528 64.8 114.354 64.8V63.2C115.688 63.0933 116.781 62.8533 117.634 62.48C118.541 62.1067 119.394 61.52 120.194 60.72L126.194 54.72C127.954 52.96 128.834 51.4667 128.834 50.24C128.888 49.0133 128.328 48.08 127.154 47.44C126.034 46.7467 124.568 46.3467 122.754 46.24V44.64C124.194 44.6933 125.794 44.7733 127.554 44.88C129.314 44.9333 130.808 44.96 132.034 44.96C132.994 44.96 134.008 44.96 135.074 44.96C136.194 44.9067 137.234 44.8533 138.194 44.8C139.208 44.7467 140.008 44.6933 140.594 44.64ZM163.78 43.52C168.474 43.52 172.154 44.9333 174.82 47.76C177.487 50.5867 178.82 55.0933 178.82 61.28H151.86L151.78 59.76H169.54C169.647 57.1467 169.487 54.7467 169.06 52.56C168.634 50.32 167.94 48.5333 166.98 47.2C166.074 45.8667 164.874 45.2 163.38 45.2C161.354 45.2 159.594 46.4 158.1 48.8C156.607 51.1467 155.674 55.0133 155.3 60.4L155.62 60.88C155.514 61.5733 155.434 62.32 155.38 63.12C155.38 63.92 155.38 64.72 155.38 65.52C155.38 69.2 155.914 72.24 156.98 74.64C158.047 77.04 159.434 78.8 161.14 79.92C162.847 81.04 164.607 81.6 166.42 81.6C167.647 81.6 168.9 81.4133 170.18 81.04C171.46 80.6667 172.714 79.9733 173.94 78.96C175.167 77.9467 176.287 76.5067 177.3 74.64L178.82 75.28C178.234 77.1467 177.247 79.0133 175.86 80.88C174.527 82.6933 172.794 84.1867 170.66 85.36C168.527 86.5333 166.02 87.12 163.14 87.12C159.514 87.12 156.314 86.32 153.54 84.72C150.767 83.12 148.607 80.7467 147.06 77.6C145.514 74.4 144.74 70.5067 144.74 65.92C144.74 61.0667 145.54 56.9867 147.14 53.68C148.794 50.3733 151.06 47.8667 153.94 46.16C156.82 44.4 160.1 43.52 163.78 43.52ZM199.291 43.52C201.531 43.52 203.451 43.84 205.051 44.48C206.651 45.12 207.824 45.68 208.571 46.16C210.384 47.4933 211.478 46.64 211.851 43.6H213.611C213.504 45.1467 213.424 46.9867 213.371 49.12C213.318 51.2 213.291 54 213.291 57.52H211.531C211.264 55.5467 210.758 53.6267 210.011 51.76C209.264 49.8933 208.171 48.3467 206.731 47.12C205.291 45.84 203.398 45.2 201.051 45.2C199.398 45.2 198.011 45.68 196.891 46.64C195.824 47.6 195.291 48.96 195.291 50.72C195.291 52.32 195.771 53.7333 196.731 54.96C197.691 56.1333 198.918 57.2533 200.411 58.32C201.958 59.3333 203.558 60.4533 205.211 61.68C207.131 62.96 208.838 64.2667 210.331 65.6C211.824 66.88 213.024 68.32 213.931 69.92C214.838 71.4667 215.291 73.3067 215.291 75.44C215.291 77.8933 214.598 80 213.211 81.76C211.878 83.4667 210.091 84.8 207.851 85.76C205.664 86.6667 203.238 87.12 200.571 87.12C199.131 87.12 197.824 86.9867 196.651 86.72C195.478 86.4533 194.438 86.1067 193.531 85.68C192.838 85.3067 192.198 84.96 191.611 84.64C191.078 84.32 190.518 84.0533 189.931 83.84C189.398 83.5733 188.918 83.68 188.491 84.16C188.118 84.64 187.824 85.44 187.611 86.56H185.851C185.958 84.8533 186.038 82.7733 186.091 80.32C186.144 77.8667 186.171 74.6133 186.171 70.56H187.931C188.304 73.4933 188.864 76.08 189.611 78.32C190.411 80.5067 191.558 82.24 193.051 83.52C194.544 84.7467 196.464 85.36 198.811 85.36C199.824 85.36 200.784 85.1467 201.691 84.72C202.651 84.2933 203.424 83.6267 204.011 82.72C204.651 81.8133 204.971 80.5867 204.971 79.04C204.971 76.6933 204.171 74.7467 202.571 73.2C200.971 71.6533 198.971 70 196.571 68.24C194.758 66.9067 193.051 65.6 191.451 64.32C189.904 63.04 188.624 61.6 187.611 60C186.651 58.4 186.171 56.5067 186.171 54.32C186.171 51.92 186.784 49.9467 188.011 48.4C189.238 46.8 190.838 45.6 192.811 44.8C194.838 43.9467 196.998 43.52 199.291 43.52Z" fill="#983D38"/>
<path d="M245.719 49.3296C247.745 49.3296 249.399 49.5163 250.679 49.8896C251.959 50.2096 253.079 50.6363 254.039 51.1696C254.785 51.5963 255.479 52.1296 256.119 52.7696C256.759 53.4096 257.265 54.103 257.639 54.8496C258.012 55.5963 258.199 56.423 258.199 57.3296C258.199 58.8763 257.639 60.103 256.519 61.0096C255.399 61.9163 254.092 62.3696 252.599 62.3696C251.212 62.3696 249.985 61.9696 248.919 61.1696C247.905 60.3696 247.399 59.223 247.399 57.7296C247.399 56.3963 247.825 55.2496 248.679 54.2896C249.585 53.2763 250.759 52.6363 252.199 52.3696C251.825 51.8896 251.132 51.4896 250.119 51.1696C249.159 50.7963 248.012 50.6096 246.679 50.6096C243.905 50.6096 241.585 51.463 239.719 53.1696C237.852 54.8763 236.919 57.4096 236.919 60.7696C236.919 62.0496 237.132 63.4363 237.559 64.9296C238.039 66.3696 238.972 67.8096 240.359 69.2496C241.265 69.0363 242.119 68.903 242.919 68.8496C243.772 68.743 244.465 68.6896 244.999 68.6896C245.959 68.6896 246.705 68.8763 247.239 69.2496C247.772 69.5696 248.039 70.0496 248.039 70.6896C248.039 71.223 247.825 71.623 247.399 71.8896C246.972 72.1563 246.439 72.2896 245.799 72.2896C244.839 72.2896 243.852 72.0496 242.839 71.5696C241.825 71.0896 241.025 70.6896 240.439 70.3696C237.719 71.4896 235.505 73.063 233.799 75.0896C232.145 77.1163 231.319 79.863 231.319 83.3296C231.319 86.903 232.252 89.8896 234.119 92.2896C236.039 94.6896 238.705 96.503 242.119 97.7296C245.532 98.903 249.479 99.4896 253.959 99.4896C256.679 99.4896 259.319 99.1963 261.879 98.6096C264.492 97.9696 266.839 97.0363 268.919 95.8096C270.999 94.583 272.652 93.1163 273.879 91.4096C275.105 89.6496 275.719 87.623 275.719 85.3296C275.719 84.423 275.559 83.2763 275.239 81.8896C274.919 80.503 274.225 79.1163 273.159 77.7296C272.092 76.343 270.439 75.223 268.199 74.3696L268.839 73.6496C272.039 74.6096 274.412 76.3696 275.959 78.9296C277.559 81.4363 278.359 84.3163 278.359 87.5696C278.359 91.0896 277.265 94.343 275.079 97.3296C272.892 100.263 269.799 102.61 265.799 104.37C261.852 106.13 257.185 107.01 251.799 107.01C247.692 107.01 243.905 106.556 240.439 105.65C237.025 104.743 234.039 103.436 231.479 101.73C228.972 99.9696 227.025 97.863 225.639 95.4096C224.252 92.9563 223.559 90.183 223.559 87.0896C223.559 84.1563 224.145 81.6496 225.319 79.5696C226.492 77.4896 227.959 75.783 229.719 74.4496C231.479 73.063 233.239 71.9963 234.999 71.2496C236.759 70.503 238.199 69.9963 239.319 69.7296C237.612 69.0363 236.092 68.2096 234.759 67.2496C233.425 66.2363 232.385 65.0896 231.639 63.8096C230.945 62.4763 230.599 61.063 230.599 59.5696C230.599 57.9696 230.972 56.5563 231.719 55.3296C232.519 54.0496 233.612 52.9563 234.999 52.0496C236.385 51.143 237.985 50.4763 239.799 50.0496C241.612 49.5696 243.585 49.3296 245.719 49.3296ZM276.359 48.1296C279.932 48.1296 282.892 49.1163 285.239 51.0896C287.585 53.0096 288.759 55.7296 288.759 59.2496C288.759 61.703 288.199 63.783 287.079 65.4896C285.959 67.1963 284.385 68.6363 282.359 69.8096C280.385 70.9296 278.065 71.8363 275.399 72.5296C274.439 72.903 273.265 73.303 271.879 73.7296C270.492 74.1563 268.999 74.6096 267.399 75.0896C265.852 75.5163 264.359 75.943 262.919 76.3696C261.532 76.7963 260.359 77.1963 259.399 77.5696C256.039 78.423 253.372 79.4096 251.399 80.5296C249.425 81.5963 248.439 83.0896 248.439 85.0096C248.439 86.343 248.865 87.5163 249.719 88.5296C250.572 89.4896 251.639 90.2096 252.919 90.6896C254.199 91.1696 255.452 91.4096 256.679 91.4096C257.052 91.4096 257.505 91.383 258.039 91.3296C258.572 91.223 259.052 91.0896 259.479 90.9296C259.959 90.7696 260.279 90.5563 260.439 90.2896C259.265 89.9696 258.305 89.4096 257.559 88.6096C256.812 87.8096 256.439 86.7696 256.439 85.4896C256.439 83.943 256.999 82.743 258.119 81.8896C259.239 81.0363 260.599 80.6096 262.199 80.6096C263.905 80.6096 265.239 81.063 266.199 81.9696C267.212 82.8763 267.719 84.103 267.719 85.6496C267.719 87.2496 267.212 88.583 266.199 89.6496C265.185 90.7163 263.852 91.5163 262.199 92.0496C260.599 92.5296 258.865 92.7696 256.999 92.7696C255.079 92.7696 253.265 92.423 251.559 91.7296C249.852 90.983 248.465 89.8896 247.399 88.4496C246.332 87.0096 245.799 85.1163 245.799 82.7696C245.799 80.3163 246.412 78.2096 247.639 76.4496C248.865 74.6896 250.625 73.223 252.919 72.0496C255.265 70.823 258.065 69.8363 261.319 69.0896C262.599 68.7163 264.065 68.3163 265.719 67.8896C267.425 67.463 269.159 67.0096 270.919 66.5296C272.679 65.9963 274.332 65.4363 275.879 64.8496C279.292 63.8363 281.852 62.7163 283.559 61.4896C285.265 60.263 286.119 58.7696 286.119 57.0096C286.119 55.5163 285.692 54.2096 284.839 53.0896C283.985 51.9696 282.865 51.0896 281.479 50.4496C280.092 49.8096 278.599 49.4896 276.999 49.4896C276.465 49.4896 275.985 49.543 275.559 49.6496C275.185 49.703 274.919 49.8096 274.759 49.9696C275.825 50.4496 276.625 51.1163 277.159 51.9696C277.745 52.823 278.039 53.703 278.039 54.6096C278.039 56.0496 277.479 57.1963 276.359 58.0496C275.292 58.903 273.959 59.3296 272.359 59.3296C270.812 59.3296 269.479 58.903 268.359 58.0496C267.292 57.1963 266.759 55.9963 266.759 54.4496C266.759 53.063 267.185 51.8896 268.039 50.9296C268.892 49.9696 270.039 49.2763 271.479 48.8496C272.972 48.3696 274.599 48.1296 276.359 48.1296Z" fill="#3C3C3C"/>
<path d="M202.354 101.831C205.874 101.831 208.754 102.365 210.994 103.431C213.288 104.445 215.314 105.645 217.074 107.031C218.141 107.831 218.941 107.938 219.474 107.351C220.061 106.711 220.461 105.245 220.674 102.951H222.514C222.408 104.978 222.328 107.458 222.274 110.391C222.221 113.325 222.194 117.191 222.194 121.991H220.354C220.034 119.591 219.688 117.591 219.314 115.991C218.941 114.338 218.408 112.925 217.714 111.751C217.074 110.578 216.168 109.458 214.994 108.391C213.554 106.791 211.821 105.618 209.794 104.871C207.821 104.071 205.741 103.671 203.554 103.671C200.781 103.671 198.354 104.418 196.274 105.911C194.248 107.351 192.541 109.351 191.154 111.911C189.821 114.418 188.808 117.351 188.114 120.711C187.474 124.071 187.154 127.645 187.154 131.431C187.154 135.325 187.501 138.951 188.194 142.311C188.941 145.618 190.008 148.525 191.394 151.031C192.834 153.485 194.594 155.405 196.674 156.791C198.808 158.178 201.261 158.871 204.034 158.871C206.008 158.871 208.034 158.498 210.114 157.751C212.194 157.005 213.901 155.858 215.234 154.311C216.994 152.711 218.194 150.818 218.834 148.631C219.474 146.391 219.981 143.431 220.354 139.751H222.194C222.194 144.765 222.221 148.818 222.274 151.911C222.328 154.951 222.408 157.511 222.514 159.591H220.674C220.461 157.298 220.088 155.858 219.554 155.271C219.074 154.685 218.248 154.765 217.074 155.511C215.101 156.898 212.994 158.125 210.754 159.191C208.568 160.205 205.741 160.711 202.274 160.711C196.834 160.711 192.061 159.565 187.954 157.271C183.848 154.978 180.648 151.671 178.354 147.351C176.114 143.031 174.994 137.831 174.994 131.751C174.994 125.778 176.168 120.551 178.514 116.071C180.861 111.591 184.088 108.098 188.194 105.591C192.301 103.085 197.021 101.831 202.354 101.831ZM268.05 117.351V150.951C268.05 153.351 268.45 155.138 269.25 156.311C270.05 157.431 271.463 157.991 273.49 157.991V159.671C271.836 159.511 270.183 159.431 268.53 159.431C266.556 159.431 264.663 159.511 262.85 159.671C261.09 159.831 259.463 160.125 257.97 160.551V152.551C256.636 155.485 254.796 157.591 252.45 158.871C250.156 160.098 247.676 160.711 245.01 160.711C242.93 160.711 241.17 160.418 239.73 159.831C238.343 159.298 237.223 158.551 236.37 157.591C235.463 156.578 234.823 155.245 234.45 153.591C234.076 151.938 233.89 149.805 233.89 147.191V126.951C233.89 124.551 233.49 122.791 232.69 121.671C231.943 120.498 230.53 119.911 228.45 119.911V118.231C230.156 118.391 231.81 118.471 233.41 118.471C235.383 118.471 237.25 118.391 239.01 118.231C240.823 118.018 242.476 117.725 243.97 117.351V149.991C243.97 151.431 244.076 152.711 244.29 153.831C244.556 154.951 245.063 155.858 245.81 156.551C246.556 157.191 247.676 157.511 249.17 157.511C250.823 157.511 252.316 157.031 253.65 156.071C254.983 155.111 256.023 153.805 256.77 152.151C257.57 150.498 257.97 148.631 257.97 146.551V126.951C257.97 124.551 257.57 122.791 256.77 121.671C256.023 120.498 254.61 119.911 252.53 119.911V118.231C254.236 118.391 255.89 118.471 257.49 118.471C259.463 118.471 261.33 118.391 263.09 118.231C264.903 118.018 266.556 117.725 268.05 117.351ZM292.184 117.431V166.311C292.184 168.711 292.824 170.311 294.104 171.111C295.438 171.965 297.251 172.391 299.544 172.391V174.071C298.264 174.018 296.451 173.938 294.104 173.831C291.811 173.778 289.358 173.751 286.744 173.751C284.931 173.751 283.118 173.778 281.304 173.831C279.491 173.938 278.104 174.018 277.144 174.071V172.391C278.958 172.391 280.238 172.018 280.984 171.271C281.731 170.525 282.104 169.138 282.104 167.111V127.031C282.104 124.631 281.731 122.871 280.984 121.751C280.238 120.578 278.798 119.991 276.664 119.991V118.311C278.371 118.471 280.024 118.551 281.624 118.551C283.651 118.551 285.544 118.471 287.304 118.311C289.064 118.098 290.691 117.805 292.184 117.431ZM304.744 117.111C307.518 117.111 309.998 117.885 312.184 119.431C314.371 120.925 316.078 123.138 317.304 126.071C318.584 129.005 319.224 132.685 319.224 137.111C319.224 140.631 318.824 143.858 318.024 146.791C317.224 149.671 316.024 152.151 314.424 154.231C312.878 156.311 310.958 157.911 308.664 159.031C306.371 160.151 303.758 160.711 300.824 160.711C298.584 160.711 296.584 160.285 294.824 159.431C293.064 158.578 291.784 157.431 290.984 155.991L291.784 154.871C292.424 155.991 293.304 156.898 294.424 157.591C295.544 158.285 296.878 158.631 298.424 158.631C300.984 158.631 303.011 157.805 304.504 156.151C305.998 154.445 307.038 152.071 307.624 149.031C308.264 145.991 308.584 142.471 308.584 138.471C308.584 134.045 308.291 130.498 307.704 127.831C307.118 125.165 306.238 123.245 305.064 122.071C303.891 120.845 302.504 120.231 300.904 120.231C298.718 120.231 296.744 121.111 294.984 122.871C293.278 124.578 292.238 127.085 291.864 130.391L291.304 128.151C292.158 124.631 293.784 121.911 296.184 119.991C298.584 118.071 301.438 117.111 304.744 117.111ZM345.046 117.111C347.019 117.111 348.833 117.351 350.486 117.831C352.193 118.258 353.659 118.871 354.886 119.671C356.166 120.471 357.179 121.485 357.926 122.711C358.673 123.885 359.046 125.191 359.046 126.631C359.046 128.391 358.513 129.805 357.446 130.871C356.379 131.938 355.046 132.471 353.446 132.471C351.793 132.471 350.433 131.991 349.366 131.031C348.353 130.071 347.846 128.791 347.846 127.191C347.846 125.645 348.299 124.365 349.206 123.351C350.113 122.338 351.206 121.671 352.486 121.351C352.006 120.658 351.259 120.098 350.246 119.671C349.233 119.191 348.113 118.951 346.886 118.951C345.286 118.951 343.846 119.378 342.566 120.231C341.286 121.031 340.166 122.258 339.206 123.911C338.299 125.511 337.579 127.511 337.046 129.911C336.566 132.258 336.326 134.978 336.326 138.071C336.326 142.391 336.833 145.805 337.846 148.311C338.913 150.818 340.273 152.605 341.926 153.671C343.579 154.685 345.339 155.191 347.206 155.191C348.326 155.191 349.526 154.978 350.806 154.551C352.086 154.125 353.339 153.405 354.566 152.391C355.846 151.378 356.993 149.938 358.006 148.071L359.526 148.631C358.939 150.498 357.979 152.365 356.646 154.231C355.366 156.098 353.686 157.645 351.606 158.871C349.526 160.098 346.993 160.711 344.006 160.711C340.593 160.711 337.499 159.938 334.726 158.391C331.953 156.791 329.739 154.391 328.086 151.191C326.486 147.991 325.686 144.018 325.686 139.271C325.686 134.578 326.513 130.605 328.166 127.351C329.819 124.045 332.113 121.511 335.046 119.751C338.033 117.991 341.366 117.111 345.046 117.111ZM375.139 160.151C372.846 160.151 370.899 159.725 369.299 158.871C367.699 157.965 366.499 156.765 365.699 155.271C364.899 153.725 364.499 152.018 364.499 150.151C364.499 147.858 365.033 145.991 366.099 144.551C367.166 143.058 368.526 141.885 370.179 141.031C371.886 140.125 373.673 139.378 375.539 138.791C377.406 138.151 379.166 137.565 380.819 137.031C382.473 136.445 383.833 135.778 384.899 135.031C385.966 134.285 386.499 133.298 386.499 132.071V126.231C386.499 124.525 386.233 123.138 385.699 122.071C385.219 120.951 384.473 120.125 383.459 119.591C382.499 119.005 381.273 118.711 379.779 118.711C378.659 118.711 377.486 118.871 376.259 119.191C375.033 119.511 374.019 120.125 373.219 121.031C374.606 121.405 375.673 122.098 376.419 123.111C377.219 124.125 377.619 125.351 377.619 126.791C377.619 128.445 377.059 129.751 375.939 130.711C374.873 131.618 373.513 132.071 371.859 132.071C370.099 132.071 368.766 131.511 367.859 130.391C366.953 129.271 366.499 127.965 366.499 126.471C366.499 124.978 366.873 123.751 367.619 122.791C368.366 121.778 369.406 120.871 370.739 120.071C372.073 119.165 373.779 118.445 375.859 117.911C377.939 117.378 380.206 117.111 382.659 117.111C385.006 117.111 387.086 117.378 388.899 117.911C390.713 118.391 392.259 119.271 393.539 120.551C394.819 121.778 395.646 123.298 396.019 125.111C396.393 126.925 396.579 129.138 396.579 131.751V153.671C396.579 155.005 396.739 155.965 397.059 156.551C397.379 157.085 397.886 157.351 398.579 157.351C399.113 157.351 399.619 157.218 400.099 156.951C400.579 156.685 401.113 156.311 401.699 155.831L402.579 157.191C401.406 158.098 400.179 158.818 398.899 159.351C397.619 159.885 396.073 160.151 394.259 160.151C392.393 160.151 390.899 159.885 389.779 159.351C388.713 158.818 387.913 158.045 387.379 157.031C386.899 156.018 386.633 154.818 386.579 153.431C385.299 155.565 383.726 157.218 381.859 158.391C379.993 159.565 377.753 160.151 375.139 160.151ZM379.939 155.671C381.219 155.671 382.393 155.325 383.459 154.631C384.579 153.938 385.593 152.898 386.499 151.511V135.351C385.966 136.151 385.193 136.871 384.179 137.511C383.219 138.151 382.179 138.791 381.059 139.431C379.939 140.071 378.873 140.818 377.859 141.671C376.899 142.471 376.073 143.485 375.379 144.711C374.739 145.885 374.419 147.405 374.419 149.271C374.419 151.351 374.926 152.951 375.939 154.071C376.953 155.138 378.286 155.671 379.939 155.671ZM419.839 96.9513V152.151C419.839 154.391 420.212 155.911 420.959 156.711C421.705 157.511 422.985 157.911 424.799 157.911V159.591C423.892 159.538 422.505 159.485 420.639 159.431C418.772 159.325 416.879 159.271 414.959 159.271C412.985 159.271 410.959 159.325 408.879 159.431C406.852 159.485 405.332 159.538 404.319 159.591V157.911C406.292 157.911 407.679 157.511 408.479 156.711C409.332 155.911 409.759 154.391 409.759 152.151V106.551C409.759 104.151 409.359 102.391 408.559 101.271C407.812 100.098 406.399 99.5113 404.319 99.5113V97.8313C406.025 97.9913 407.679 98.0713 409.279 98.0713C411.305 98.0713 413.199 97.9913 414.959 97.8313C416.719 97.618 418.345 97.3246 419.839 96.9513ZM445.759 118.231V119.831C444.159 120.151 442.612 120.765 441.119 121.671C439.625 122.525 438.159 123.725 436.719 125.271L428.799 133.511L429.679 131.751L443.759 153.751C444.505 154.818 445.199 155.725 445.839 156.471C446.532 157.165 447.385 157.645 448.399 157.911V159.591C447.705 159.538 446.612 159.485 445.119 159.431C443.625 159.325 442.132 159.271 440.639 159.271C438.825 159.271 436.959 159.325 435.039 159.431C433.172 159.485 431.759 159.538 430.799 159.591V157.911C431.865 157.911 432.585 157.671 432.959 157.191C433.385 156.658 433.332 155.991 432.799 155.191L424.479 141.191C423.732 140.018 423.012 139.271 422.319 138.951C421.625 138.578 420.692 138.391 419.519 138.391V136.791C420.852 136.685 421.945 136.445 422.799 136.071C423.705 135.698 424.559 135.111 425.359 134.311L431.359 128.311C433.119 126.551 433.999 125.058 433.999 123.831C434.052 122.605 433.492 121.671 432.319 121.031C431.199 120.338 429.732 119.938 427.919 119.831V118.231C429.359 118.285 430.959 118.365 432.719 118.471C434.479 118.525 435.972 118.551 437.199 118.551C438.159 118.551 439.172 118.551 440.239 118.551C441.359 118.498 442.399 118.445 443.359 118.391C444.372 118.338 445.172 118.285 445.759 118.231ZM468.945 117.111C473.638 117.111 477.318 118.525 479.985 121.351C482.651 124.178 483.985 128.685 483.985 134.871H457.025L456.945 133.351H474.705C474.811 130.738 474.651 128.338 474.225 126.151C473.798 123.911 473.105 122.125 472.145 120.791C471.238 119.458 470.038 118.791 468.545 118.791C466.518 118.791 464.758 119.991 463.265 122.391C461.771 124.738 460.838 128.605 460.465 133.991L460.785 134.471C460.678 135.165 460.598 135.911 460.545 136.711C460.545 137.511 460.545 138.311 460.545 139.111C460.545 142.791 461.078 145.831 462.145 148.231C463.211 150.631 464.598 152.391 466.305 153.511C468.011 154.631 469.771 155.191 471.585 155.191C472.811 155.191 474.065 155.005 475.345 154.631C476.625 154.258 477.878 153.565 479.105 152.551C480.331 151.538 481.451 150.098 482.465 148.231L483.985 148.871C483.398 150.738 482.411 152.605 481.025 154.471C479.691 156.285 477.958 157.778 475.825 158.951C473.691 160.125 471.185 160.711 468.305 160.711C464.678 160.711 461.478 159.911 458.705 158.311C455.931 156.711 453.771 154.338 452.225 151.191C450.678 147.991 449.905 144.098 449.905 139.511C449.905 134.658 450.705 130.578 452.305 127.271C453.958 123.965 456.225 121.458 459.105 119.751C461.985 117.991 465.265 117.111 468.945 117.111ZM504.455 117.111C506.695 117.111 508.615 117.431 510.215 118.071C511.815 118.711 512.989 119.271 513.735 119.751C515.549 121.085 516.642 120.231 517.015 117.191H518.775C518.669 118.738 518.589 120.578 518.535 122.711C518.482 124.791 518.455 127.591 518.455 131.111H516.695C516.429 129.138 515.922 127.218 515.175 125.351C514.429 123.485 513.335 121.938 511.895 120.711C510.455 119.431 508.562 118.791 506.215 118.791C504.562 118.791 503.175 119.271 502.055 120.231C500.989 121.191 500.455 122.551 500.455 124.311C500.455 125.911 500.935 127.325 501.895 128.551C502.855 129.725 504.082 130.845 505.575 131.911C507.122 132.925 508.722 134.045 510.375 135.271C512.295 136.551 514.002 137.858 515.495 139.191C516.989 140.471 518.189 141.911 519.095 143.511C520.002 145.058 520.455 146.898 520.455 149.031C520.455 151.485 519.762 153.591 518.375 155.351C517.042 157.058 515.255 158.391 513.015 159.351C510.829 160.258 508.402 160.711 505.735 160.711C504.295 160.711 502.989 160.578 501.815 160.311C500.642 160.045 499.602 159.698 498.695 159.271C498.002 158.898 497.362 158.551 496.775 158.231C496.242 157.911 495.682 157.645 495.095 157.431C494.562 157.165 494.082 157.271 493.655 157.751C493.282 158.231 492.989 159.031 492.775 160.151H491.015C491.122 158.445 491.202 156.365 491.255 153.911C491.309 151.458 491.335 148.205 491.335 144.151H493.095C493.469 147.085 494.029 149.671 494.775 151.911C495.575 154.098 496.722 155.831 498.215 157.111C499.709 158.338 501.629 158.951 503.975 158.951C504.989 158.951 505.949 158.738 506.855 158.311C507.815 157.885 508.589 157.218 509.175 156.311C509.815 155.405 510.135 154.178 510.135 152.631C510.135 150.285 509.335 148.338 507.735 146.791C506.135 145.245 504.135 143.591 501.735 141.831C499.922 140.498 498.215 139.191 496.615 137.911C495.069 136.631 493.789 135.191 492.775 133.591C491.815 131.991 491.335 130.098 491.335 127.911C491.335 125.511 491.949 123.538 493.175 121.991C494.402 120.391 496.002 119.191 497.975 118.391C500.002 117.538 502.162 117.111 504.455 117.111Z" fill="#983D38"/>
</svg>
