<svg width="1600" height="324" viewBox="0 0 1600 324" fill="none" xmlns="http://www.w3.org/2000/svg">
<path fill-rule="evenodd" clip-rule="evenodd" d="M0 0L22.6667 30C44 60 89.3333 120 133.333 138C177.333 156 222.667 132 266.667 144C310.667 156 356 204 400 234C444 264 489.333 276 533.333 258C577.333 240 622.667 192 666.667 174C710.667 156 756 168 800 186C844 204 889.333 228 933.333 204C977.333 180 1022.67 108 1066.67 66C1110.67 24 1156 12 1200 36C1244 60 1289.33 120 1333.33 150C1377.33 180 1422.67 180 1466.67 162C1510.67 144 1556 108 1577.33 90L1600 72V324H1577.33C1556 324 1510.67 324 1466.67 324C1422.67 324 1377.33 324 1333.33 324C1289.33 324 1244 324 1200 324C1156 324 1110.67 324 1066.67 324C1022.67 324 977.333 324 933.333 324C889.333 324 844 324 800 324C756 324 710.667 324 666.667 324C622.667 324 577.333 324 533.333 324C489.333 324 444 324 400 324C356 324 310.667 324 266.667 324C222.667 324 177.333 324 133.333 324C89.3333 324 44 324 22.6667 324H0V0Z" fill="#32516D"/>
</svg>
